<?xml version="1.0" encoding="utf-8"?>
<?xml-stylesheet type="text/xsl" href="rss1.xsl"?>
<rss version="2.0" xmlns:atom="http://www.w3.org/2005/Atom" xmlns:content="http://purl.org/rss/1.0/modules/content/" xmlns:dc="http://purl.org/dc/elements/1.1/" xmlns:media="http://search.yahoo.com/mrss/">
<channel>
 <title>Getty</title>
 <link>http://www.gettyimg.com/</link>
 <atom:link href="http://www.gettyimg.com/" rel="self" type="application/rss+xml" />

 
                <item>
                <title><![CDATA[【Requests】[REQ AUD] - Curtis Mayfield - Super Fly (FLAC)]]></title>
                <link><![CDATA[https://sharemania.us/threads/curtis-mayfield-super-fly-flac.236582/]]></link>
                <description><![CDATA[<article>
<blockquote class="messageText SelectQuoteContainer ugc baseHtml">
I'm looking for the Super Fly soundtrack in FLAC (or lossless) format. Thank you very much!<br>
<br>
<img src="https://upload.wikimedia.org/wikipedia/en/2/26/CurtisMayfieldSuperfly.jpg" class="bbCodeImage LbImage" alt="[​IMG]" data-url="https://upload.wikimedia.org/wikipedia/en/2/26/CurtisMayfieldSuperfly.jpg" style="">
<div class="messageTextEndMarker">&nbsp;</div>
</blockquote>
</article>]]></description>
                <author><![CDATA[Suge Knight]]></author>
                </item>

                
                <item>
                <title><![CDATA[【Cinema Center】MOVIE - Fantastic Four (2005) (1080p BluRay x264 DTS) [FGT]]]></title>
                <link><![CDATA[https://sharemania.us/threads/fantastic-four-2005-1080p-bluray-x264-dts-fgt.236581/]]></link>
                <description><![CDATA[<article>
<blockquote class="messageText SelectQuoteContainer ugc baseHtml">
<b>Media Information</b><br>
<div class="bbCodeBlock bbCodeCode">
<div class="type">Code:</div>
<pre>General
Unique ID                                : 231245378492523159131773874008827980171 (0xADF83D69B14E09C6A420D88DCDA5698B)
Complete name                            : Fantastic.Four.2005.1080p.BluRay.x264.DTS-FGT.mkv
Format                                   : Matroska
Format version                           : Version 4
File size                                : 10.8 GiB
Duration                                 : 1 h 45 min
Overall bit rate                         : 14.7 Mb/s
Frame rate                               : 23.976 FPS
Movie name                               : Fantastic Four
Encoded date                             : 2015-06-18 06:51:47 UTC
Writing application                      : mkvmerge v7.9.0 ('Birds') 64bit
Writing library                          : libebml v1.3.1 + libmatroska v1.4.2
Cover                                    : Yes
Attachments                              : small_cover.jpg / small_cover_land.jpg / cover.jpg / cover_land.jpg

Video
ID                                       : 1
Format                                   : AVC
Format/Info                              : Advanced Video Codec
Format profile                           : High@L4.1
Format settings                          : CABAC / 5 Ref Frames
Format settings, CABAC                   : Yes
Format settings, Reference frames        : 5 frames
Codec ID                                 : V_MPEG4/ISO/AVC
Duration                                 : 1 h 45 min
Bit rate                                 : 12.9 Mb/s
Width                                    : 1 916 pixels
Height                                   : 816 pixels
Display aspect ratio                     : 2.35:1
Frame rate mode                          : Constant
Frame rate                               : 23.976 (24000/1001) FPS
Color space                              : YUV
Chroma subsampling                       : 4:2:0
Bit depth                                : 8 bits
Scan type                                : Progressive
Bits/(Pixel*Frame)                       : 0.344
Stream size                              : 9.49 GiB (88%)
Writing library                          : x264 core 130 r2273kMod b3065e6
Encoding settings                        : cabac=1 / ref=5 / deblock=1:-2:-2 / analyse=0x3:0x133 / me=umh / subme=11 / psy=1 / fade_compensate=0.00 / psy_rd=1.05:0.00 / mixed_ref=1 / me_range=64 / chroma_me=1 / trellis=2 / 8x8dct=1 / cqm=0 / deadzone=21,11 / fast_pskip=0 / chroma_qp_offset=-2 / threads=18 / lookahead_threads=3 / sliced_threads=0 / nr=0 / decimate=0 / interlaced=0 / bluray_compat=0 / constrained_intra=0 / bframes=8 / b_pyramid=2 / b_adapt=2 / b_bias=0 / direct=3 / weightb=1 / open_gop=0 / weightp=2 / keyint=250 / keyint_min=23 / scenecut=40 / intra_refresh=0 / rc=crf / mbtree=0 / crf=18.5000 / qcomp=0.80 / qpmin=0 / qpmax=69 / qpstep=4 / ip_ratio=1.25 / pb_ratio=1.20 / aq=2:0.85
Language                                 : English
Default                                  : Yes
Forced                                   : No

Audio
ID                                       : 2
Format                                   : DTS
Format/Info                              : Digital Theater Systems
Codec ID                                 : A_DTS
Duration                                 : 1 h 45 min
Bit rate mode                            : Constant
Bit rate                                 : 1 509 kb/s
Channel(s)                               : 6 channels
Channel layout                           : C L R Ls Rs LFE
Sampling rate                            : 48.0 kHz
Frame rate                               : 93.750 FPS (512 SPF)
Bit depth                                : 24 bits
Compression mode                         : Lossy
Stream size                              : 1.11 GiB (10%)
Language                                 : English
Default                                  : Yes
Forced                                   : No

Text
ID                                       : 3
Format                                   : UTF-8
Codec ID                                 : S_TEXT/UTF8
Codec ID/Info                            : UTF-8 Plain Text
Language                                 : English
Default                                  : Yes
Forced                                   : No

Menu
00:00:00.000                             : en:A Deal with Von Doom
00:05:06.848                             : en:Uneasy Alliance
00:07:58.978                             : en:Nine Hours to Contact
00:10:36.677                             : en:The Cosmic Storm
00:14:35.708                             : en:Quarantine
00:17:15.242                             : en:Running Hot
00:19:21.034                             : en:Man on Fire
00:21:26.576                             : en:Metamorphosis
00:28:20.865                             : en:Thing
00:30:52.141                             : en:Panic on the Brooklyn Bridge
00:39:41.379                             : en:The Fantastic Four
00:42:50.818                             : en:Back to the Baxter Building
00:45:38.569                             : en:Victor's Visit
00:48:12.806                             : en:Tests
00:51:52.275                             : en:Terrible News
00:54:54.124                             : en:Reed's Plan
00:57:14.764                             : en:Vengeance of Won Doom
00:59:21.474                             : en:The Torch Breaks Out
01:02:58.441                             : en:This Is Who We Are
01:06:27.984                             : en:Alicia
01:09:57.359                             : en:Take Charge
01:11:33.956                             : en:Seeds of Doubt
01:15:45.374                             : en:More Power
01:17:27.559                             : en:To Be Ben Grimm Again
01:21:16.830                             : en:A Better, Stronger Being
01:24:12.672                             : en:Flame on!
01:26:25.513                             : en:Call Me Doom
01:27:49.597                             : en:It's Clobberin' Time!
01:30:20.832                             : en:Doomsday
01:34:17.276                             : en:Celebration
01:37:00.481                             : en:The End?
01:37:55.494                             : en:End Titles
</pre>
</div><b>Download</b><br>
<a href="https://mypikpak.com/s/VNpD-z8EukFdS2E3Mbfkjeb1o1" target="_blank" class="externalLink" rel="nofollow">https://mypikpak.com/s/VNpD-z8EukFdS2E3Mbfkjeb1o1</a>
<div class="messageTextEndMarker">&nbsp;</div>
</blockquote>
</article>]]></description>
                <author><![CDATA[Austin Zimmermann]]></author>
                </item>

                </channel></rss>